<svg width="112" height="70" viewBox="0 0 112 70" fill="none" xmlns="http://www.w3.org/2000/svg">
<g clip-path="url(#clip0_907_16543)">
<path d="M0 16C0 7.16344 7.16344 0 16 0H96C104.837 0 112 7.16344 112 16V54C112 62.8366 104.837 70 96 70H16C7.16344 70 0 62.8366 0 54V16Z" fill="#502314"/>
<path d="M60.5451 58.0326C60.4414 58.0652 59.9185 56.8529 59.8148 56.8854C62.0528 64.6505 65.56 72.8904 72.2423 77.9694C92.3718 86.7255 112.598 80.9085 97.6115 57.0868C92.9738 52.5337 88.6572 47.6424 83.7135 43.3846L83.7994 43.3861C71.4186 34.4571 92.0525 38.318 91.9848 29.6345C92.3242 27.1168 95.4546 27.9568 96.4498 25.7744C96.7097 24.0316 96.6173 21.9532 99.0111 21.6859C102.332 21.3176 104.059 19.5319 104.44 16.2988C104.768 13.4429 114.337 8.63574 107.695 8.2524C105.245 11.8787 101.87 16.9439 97.6188 20.063C91.5181 23.2785 89.6115 32.8095 82.0244 33.8905C78.6344 32.0119 80.7125 34.701 70.958 32.1431C61.2035 29.5852 71.1178 35.9185 74.5978 37.5696C74.5892 37.5723 74.5805 37.575 74.5633 37.5804C83.308 47.0527 97.3786 78.9362 76.7423 71.4688C67.8321 68.3042 69.1828 63.1719 60.5451 58.0326Z" fill="#FF8732"/>
<path d="M101.317 8.85881C95.738 9.92645 80.7411 18.1271 72.6856 18.8045C71.9368 18.3846 58.7159 18.1203 52.2604 24.8929C41.1122 36.7362 67.1039 69.0072 73.2882 71.6226C100.599 83.1461 90.9144 57.5845 80.0535 42.2171C75.1653 35.2934 68.7619 34.5504 67.8387 32.9702C65.5975 29.1266 75.5896 35.4355 82.2995 34.0698C89.8028 32.5405 91.8908 23.7688 97.9915 20.5534C102.801 17.9712 103.806 12.2828 108.184 9.62709C108.636 6.74188 106.898 7.79981 101.32 8.86745L101.317 8.85881Z" fill="#FFAA00"/>
<path d="M17.4505 31.4197C13.7131 34.0895 28.3795 38.2988 27.5186 59.4115C26.9819 64.4077 31.5541 64.5489 33.4394 64.0758C35.3247 63.6026 35.7403 62.7049 36.7931 60.0687C47.5533 59.7705 48.2295 54.7422 40.2043 47.7465C34.508 41.9236 32.4691 31.9121 28.8748 24.4456C24.9487 24.4092 17.4485 31.4294 17.4485 31.4294L17.4505 31.4197Z" fill="#E4D7C8"/>
<path d="M36.3404 35.2374C37.339 30.7672 35.8601 9.02087 33.3457 5.85757C32.8471 8.86933 31.9459 13.4111 31.4472 16.4228C22.548 37.2294 3.29933 29.5254 -8.60316 15.9745C-1.80674 23.7139 5.62016 30.9316 12.8794 37.1946C31.0691 52.922 36.3522 35.2296 36.3522 35.2296L36.3404 35.2374Z" fill="#FFAA00"/>
<path d="M33.6384 9.18838C33.4537 3.73441 31.7466 -1.67095 29.5223 -6.70455C27.9336 -10.2868 26.0617 -13.7854 23.4805 -16.7277C20.8994 -19.67 7.42973 -21.7995 3.62757 -22.7193C-1.80858 -24.0328 -9.05708 -24.6944 -13.6815 -21.5464C-23.2382 -15.0492 -20.3659 -4.3828 -14.5577 7.33858C-11.7931 12.9146 -6.95777 20.2122 -1.8165 23.7117C1.75204 26.1356 5.52074 28.3358 9.65945 29.551C13.7982 30.7662 18.3449 30.9123 22.3413 29.298C28.692 26.7368 32.6888 20.0037 33.4717 13.1995C33.6293 11.8634 33.6751 10.5243 33.6286 9.18633L33.6384 9.18838Z" fill="#FFAA00"/>
</g>
<defs>
<clipPath id="clip0_907_16543">
<path d="M0 16C0 7.16344 7.16344 0 16 0H96C104.837 0 112 7.16344 112 16V54C112 62.8366 104.837 70 96 70H16C7.16344 70 0 62.8366 0 54V16Z" fill="white"/>
</clipPath>
</defs>
</svg>
